# This file uses centimeters as units for non-parametric coordinates.

mtllib star.mtl
g default
v -7.234479 -7.234473 7.234472
v 7.234467 -7.234473 7.234472
v -7.234479 7.234467 7.234472
v 7.234467 7.234467 7.234472
v -7.234479 7.234467 -7.234472
v 7.234467 7.234467 -7.234472
v -7.234479 -7.234473 -7.234472
v 7.234467 -7.234473 -7.234472
v 9.766533 -0.000003 9.766537
v -0.000006 9.766536 9.766537
v -9.766544 9.766536 0.000000
v 9.766533 9.766536 0.000000
v -0.000006 9.766536 -9.766537
v -9.766544 -0.000003 -9.766537
v 9.766533 -0.000003 -9.766537
v -0.000006 -9.766539 -9.766537
v -9.766544 -9.766539 0.000000
v 9.766533 -9.766539 0.000000
v -0.000006 -9.766539 9.766537
v -9.766544 -0.000003 9.766537
v -0.000006 -0.000003 22.204706
v -0.000006 22.204706 0.000000
v -0.000006 -0.000003 -22.204706
v -0.000006 -22.204709 0.000000
v 22.204700 -0.000003 0.000000
v -22.204711 -0.000003 0.000000
vt 0.220955 0.220955
vt 0.321874 0.191859
vt 0.321874 0.321874
vt 0.191859 0.321874
vt 0.422793 0.220955
vt 0.451888 0.321874
vt 0.422793 0.422793
vt 0.321874 0.451888
vt 0.220955 0.422793
vt 0.321874 0.641748
vt 0.147893 0.495854
vt 0.495854 0.495854
vt 0.665692 0.998000
vt 0.491711 0.852107
vt 0.564773 0.779045
vt 0.665692 0.808141
vt 0.839672 0.852107
vt 0.766611 0.779045
vt 0.665692 0.678126
vt 0.795706 0.678126
vt 0.535677 0.678126
vt 0.564773 0.577207
vt 0.665692 0.548112
vt 0.766611 0.577207
vt 0.665692 0.358252
vt 0.839672 0.504146
vt 0.491711 0.504146
vt 0.321874 0.002000
vt 0.495854 0.147893
vt 0.147893 0.147893
vt 0.641748 0.321874
vt 0.345818 0.678126
vt 0.985565 0.678126
vt 0.002000 0.321874
vn -0.577350 -0.577350 0.577350
vn -0.000000 -0.707107 0.707107
vn -0.000000 -0.000000 1.000000
vn -0.707107 -0.000000 0.707107
vn 0.577350 -0.577350 0.577350
vn 0.707107 0.000000 0.707107
vn 0.577350 0.577350 0.577350
vn 0.000000 0.707107 0.707107
vn -0.577350 0.577350 0.577350
vn 0.000000 1.000000 0.000000
vn -0.707107 0.707107 0.000000
vn 0.707107 0.707107 0.000000
vn 0.577350 0.577350 -0.577350
vn 0.000000 0.707107 -0.707107
vn -0.577350 0.577350 -0.577350
vn 0.000000 0.000000 -1.000000
vn -0.707107 -0.000000 -0.707107
vn 0.707107 0.000000 -0.707107
vn 0.577350 -0.577350 -0.577350
vn -0.000000 -0.707107 -0.707107
vn -0.577350 -0.577350 -0.577350
vn -0.000000 -1.000000 0.000000
vn -0.707107 -0.707107 -0.000000
vn 0.707107 -0.707107 0.000000
vn 1.000000 0.000000 0.000000
vn -1.000000 -0.000000 -0.000000
s 1
g pCube1
usemtl initialShadingGroup
f 1/1/1 19/2/2 21/3/3 20/4/4
f 19/2/2 2/5/5 9/6/6 21/3/3
f 21/3/3 9/6/6 4/7/7 10/8/8
f 20/4/4 21/3/3 10/8/8 3/9/9
f 3/9/9 10/8/8 22/10/10 11/11/11
f 10/8/8 4/7/7 12/12/12 22/10/10
f 22/13/10 12/14/12 6/15/13 13/16/14
f 11/17/11 22/13/10 13/16/14 5/18/15
f 5/18/15 13/16/14 23/19/16 14/20/17
f 13/16/14 6/15/13 15/21/18 23/19/16
f 23/19/16 15/21/18 8/22/19 16/23/20
f 14/20/17 23/19/16 16/23/20 7/24/21
f 7/24/21 16/23/20 24/25/22 17/26/23
f 16/23/20 8/22/19 18/27/24 24/25/22
f 24/28/22 18/29/24 2/5/5 19/2/2
f 17/30/23 24/28/22 19/2/2 1/1/1
f 2/5/5 18/29/24 25/31/25 9/6/6
f 18/27/24 8/22/19 15/21/18 25/32/25
f 25/32/25 15/21/18 6/15/13 12/14/12
f 9/6/6 25/31/25 12/12/12 4/7/7
f 7/24/21 17/26/23 26/33/26 14/20/17
f 17/30/23 1/1/1 20/4/4 26/34/26
f 26/34/26 20/4/4 3/9/9 11/11/11
f 14/20/17 26/33/26 11/17/11 5/18/15
