# This file uses centimeters as units for non-parametric coordinates.

mtllib Cube.mtl
g default
v -42.513532 -42.513532 42.513531
v 42.513530 -42.513532 42.513531
v -42.513532 42.513530 42.513531
v 42.513530 42.513530 42.513531
v -42.513532 42.513530 -42.513531
v 42.513530 42.513530 -42.513531
v -42.513532 -42.513532 -42.513531
v 42.513530 -42.513532 -42.513531
vt 0.629494 0.747819
vt 0.871745 0.747091
vt 0.872474 0.989342
vt 0.630223 0.990071
vt 0.627308 0.021065
vt 0.628036 0.263317
vt 0.385785 0.264045
vt 0.385056 0.021794
vt 0.387971 0.990800
vt 0.145720 0.991528
vt 0.144991 0.749277
vt 0.387243 0.748548
vt 0.386514 0.506297
vt 0.628765 0.505568
vn 0.000000 0.000000 1.000000
vn 0.000000 0.000000 1.000000
vn 0.000000 0.000000 1.000000
vn 0.000000 0.000000 1.000000
vn 0.000000 1.000000 0.000000
vn 0.000000 1.000000 0.000000
vn 0.000000 1.000000 0.000000
vn 0.000000 1.000000 0.000000
vn 0.000000 0.000000 -1.000000
vn 0.000000 0.000000 -1.000000
vn 0.000000 0.000000 -1.000000
vn 0.000000 0.000000 -1.000000
vn 0.000000 -1.000000 0.000000
vn 0.000000 -1.000000 0.000000
vn 0.000000 -1.000000 0.000000
vn 0.000000 -1.000000 0.000000
vn 1.000000 0.000000 0.000000
vn 1.000000 0.000000 0.000000
vn 1.000000 0.000000 0.000000
vn 1.000000 0.000000 0.000000
vn -1.000000 0.000000 0.000000
vn -1.000000 0.000000 0.000000
vn -1.000000 0.000000 0.000000
vn -1.000000 0.000000 0.000000
s off
g pCube1
usemtl initialShadingGroup
f 1/1/1 2/2/2 4/3/3 3/4/4
f 3/5/5 4/6/6 6/7/7 5/8/8
f 5/9/9 6/10/10 8/11/11 7/12/12
f 7/12/13 8/13/14 2/14/15 1/1/16
f 2/14/17 8/13/18 6/7/19 4/6/20
f 7/12/21 1/1/22 3/4/23 5/9/24
